<svg xmlns="http://www.w3.org/2000/svg" version="1.0" width="300.000000pt" height="264.000000pt" viewBox="0 0 300.000000 264.000000" preserveAspectRatio="xMidYMid meet">
<metadata fill="#ffffff">
Created by potrace 1.10, written by Peter Selinger 2001-2011
</metadata>
<g transform="translate(0.000000,264.000000) scale(0.100000,-0.100000)" fill="#ffffff" stroke="none">
<path d="M713 2620 c-206 -22 -361 -113 -466 -273 -108 -165 -120 -220 -115 -559 4 -252 5 -266 30 -333 36 -99 106 -211 157 -253 13 -10 17 -42 21 -155 l5 -142 28 -3 c20 -3 52 14 128 66 93 64 104 69 132 61 18 -5 66 -9 108 -9 73 0 77 1 83 24 3 13 9 31 12 40 5 14 -5 16 -77 16 -81 0 -153 11 -167 25 -6 6 34 45 126 125 17 15 22 30 22 64 0 25 5 57 11 73 9 23 7 30 -8 41 -10 7 -46 32 -79 56 l-61 44 -7 -75 c-8 -83 -18 -112 -57 -163 -15 -20 -35 -52 -45 -73 -10 -21 -22 -36 -27 -34 -5 1 -30 20 -56 42 -92 77 -158 177 -188 285 -26 95 -26 515 0 609 44 161 157 303 290 367 97 46 141 53 357 60 313 11 429 -23 570 -165 75 -76 115 -141 148 -241 20 -60 29 -456 13 -561 -20 -129 -100 -269 -205 -357 -86 -73 -214 -122 -316 -122 -22 0 -40 -4 -40 -9 0 -4 27 -20 60 -35 52 -22 67 -25 103 -16 208 46 405 246 461 466 23 89 23 549 0 638 -45 176 -174 337 -334 414 -110 54 -216 72 -404 71 -77 -1 -174 -5 -213 -9z m-28 -1200 c22 -24 18 -30 -17 -23 -30 6 -47 43 -19 43 10 0 26 -9 36 -20z m13 -78 c41 -53 -35 -124 -82 -76 -9 8 -16 28 -16 44 0 53 64 74 98 32z m-97 -108 c10 -12 10 -19 1 -32 -41 -58 -44 -71 -22 -101 l20 -29 -41 -21 c-23 -12 -47 -27 -55 -34 -32 -29 -44 -37 -52 -37 -5 0 -15 -7 -22 -15 -15 -19 -46 -20 -53 -2 -8 21 -8 237 0 237 4 0 16 -9 27 -19 24 -23 66 -35 81 -24 6 5 25 27 44 51 35 45 51 51 72 26z" fill="#ffffff"/>
<path d="M632 1308 c2 -15 10 -23 23 -23 30 0 27 39 -3 43 -20 3 -23 0 -20 -20z" fill="#ffffff"/>
<path d="M815 2433 c-97 -50 -113 -185 -29 -249 70 -54 170 -38 220 35 82 121 -60 281 -191 214z m142 -57 c31 -37 38 -71 23 -115 -25 -75 -112 -95 -176 -39 -34 30 -36 35 -32 80 4 38 12 55 38 79 29 28 37 31 78 26 34 -4 53 -12 69 -31z" fill="#ffffff"/>
<path d="M1317 2174 c-14 -15 -6 -44 28 -94 88 -131 86 -282 -4 -416 -31 -46 -37 -62 -29 -77 41 -77 168 133 168 279 0 30 -7 85 -17 121 -27 109 -113 219 -146 187z" fill="#ffffff"/>
<path d="M665 2126 c-16 -8 -81 -65 -143 -129 l-113 -115 -6 -154 c-6 -149 -5 -156 16 -177 27 -27 34 -26 66 2 25 21 28 32 38 142 l11 120 68 64 c49 47 71 62 79 54 8 -8 -1 -24 -31 -57 -40 -43 -42 -49 -56 -146 -19 -138 -14 -149 123 -242 150 -102 151 -103 154 -273 2 -90 -2 -150 -9 -168 -7 -16 -12 -42 -12 -58 l0 -29 145 0 c109 0 145 3 145 13 0 22 -14 34 -71 61 -32 15 -62 33 -69 41 -15 18 6 251 26 280 8 11 14 37 14 58 0 30 -6 43 -27 60 -36 29 -140 136 -159 164 -14 19 -11 35 25 177 23 86 41 169 41 185 0 41 -51 105 -99 125 -50 19 -115 20 -156 2z m116 -27 c50 -16 100 -68 100 -105 0 -36 -5 -58 -47 -209 -33 -120 -28 -158 29 -215 47 -49 49 -63 12 -93 l-33 -26 -98 64 c-122 80 -131 98 -113 223 7 45 16 82 21 82 5 0 7 4 4 9 -3 5 5 16 18 24 13 9 28 30 34 46 10 27 8 33 -14 50 -22 17 -27 18 -53 5 -16 -8 -56 -43 -88 -77 -52 -56 -59 -69 -61 -108 -3 -50 -10 -111 -18 -151 -6 -31 -30 -38 -32 -10 -5 70 0 225 7 246 14 35 204 224 243 241 41 18 42 18 89 4z m203 -640 c26 -20 35 -61 18 -85 -9 -13 -46 -34 -62 -34 -20 0 -60 49 -60 74 0 25 41 66 65 66 7 0 24 -9 39 -21z m-21 -204 c-1 -27 -3 -78 -4 -112 -3 -61 -2 -64 36 -103 38 -39 38 -40 15 -41 -14 0 -39 -2 -56 -3 -18 -2 -37 0 -43 3 -16 10 -22 49 -9 57 6 4 9 43 7 98 -4 154 -3 158 29 154 26 -3 27 -5 25 -53z" fill="#ffffff"/>
<path d="M914 1426 c-11 -28 4 -48 33 -44 22 2 28 8 28 28 0 20 -6 26 -28 28 -18 2 -29 -2 -33 -12z" fill="#ffffff"/>
<path d="M1222 2078 c-18 -18 -15 -36 12 -71 57 -78 61 -158 11 -242 -36 -59 -38 -81 -10 -91 38 -15 101 85 111 177 6 63 -20 151 -62 206 -27 35 -42 41 -62 21z" fill="#ffffff"/>
<path d="M1123 1974 c-3 -9 1 -29 11 -44 20 -36 21 -74 0 -105 -13 -21 -14 -28 -4 -41 38 -45 97 31 86 111 -11 73 -74 127 -93 79z" fill="#ffffff"/>
<path d="M927 1880 c-22 -71 -38 -151 -32 -160 9 -14 183 -100 202 -100 8 0 25 11 38 24 21 21 23 29 15 53 -8 21 -31 39 -96 73 -73 38 -89 51 -105 85 -11 25 -20 34 -22 25z m53 -110 c0 -5 6 -10 13 -10 6 0 33 -14 60 -30 80 -51 51 -83 -36 -39 -73 37 -85 48 -80 69 5 20 43 29 43 10z" fill="#ffffff"/>
<path d="M37 813 c-4 -3 -7 -141 -7 -305 l0 -299 58 3 57 3 0 128 0 127 133 0 132 0 0 -130 0 -131 58 3 57 3 3 280 c1 154 0 290 -3 303 -5 21 -10 23 -58 20 l-52 -3 -3 -117 -3 -118 -132 0 -133 0 4 95 c2 52 1 106 -2 120 -6 22 -11 25 -55 25 -26 0 -51 -3 -54 -7z m62 -47 c7 -8 11 -44 9 -89 -1 -56 3 -82 16 -101 19 -29 12 -28 160 -31 98 -2 111 0 133 19 22 19 25 30 26 106 2 93 10 118 32 100 11 -9 13 -64 12 -263 -2 -242 -3 -252 -21 -252 -18 0 -20 9 -22 108 -3 140 -8 146 -144 148 -130 2 -142 0 -167 -24 -21 -19 -23 -29 -23 -124 0 -84 -3 -105 -15 -110 -9 -3 -19 -2 -23 2 -8 8 -15 470 -7 503 6 25 17 28 34 8z" fill="#ffffff"/>
<path d="M1595 807 c-3 -7 -4 -143 -3 -302 l3 -290 203 -3 202 -2 0 50 0 49 -141 3 -142 3 -1 72 -1 72 120 3 120 3 0 50 0 50 -120 3 -120 3 0 69 0 70 136 0 c75 0 138 2 140 4 2 2 2 27 1 55 l-4 51 -194 0 c-148 0 -196 -3 -199 -13z m350 -38 c13 -19 -6 -24 -113 -26 -96 -2 -108 -4 -129 -25 -35 -35 -36 -128 -3 -163 21 -22 31 -25 101 -25 80 0 109 -6 109 -21 0 -5 -40 -9 -89 -9 -74 0 -92 -3 -115 -21 -23 -18 -26 -27 -26 -84 0 -82 5 -92 51 -114 22 -11 37 -16 34 -12 -2 4 36 7 85 7 76 -1 90 -4 90 -17 0 -14 -18 -16 -140 -16 -108 -1 -144 2 -155 13 -11 12 -14 61 -14 256 0 160 3 246 11 255 13 17 293 19 303 2z" fill="#ffffff"/>
<path d="M778 671 c-58 -12 -114 -57 -143 -114 -33 -66 -35 -177 -6 -236 43 -83 154 -141 245 -127 51 8 146 53 146 69 0 7 -12 25 -26 41 l-25 29 -39 -22 c-48 -27 -135 -29 -166 -3 -27 21 -44 54 -44 82 0 20 4 21 158 20 l157 -2 -1 64 c-1 141 -112 227 -256 199z m-18 -62 c0 -5 -9 -13 -20 -19 -22 -12 -34 -32 -44 -72 -5 -21 -1 -33 15 -49 l21 -21 -25 -24 c-23 -21 -25 -27 -15 -60 5 -21 19 -50 30 -65 21 -28 71 -53 82 -42 3 4 6 1 6 -5 0 -16 -51 -9 -83 13 -62 40 -96 150 -74 237 10 41 70 115 93 115 8 0 14 -4 14 -8z m165 2 c-3 -2 5 -9 18 -15 27 -14 47 -54 54 -107 6 -38 5 -39 -26 -39 -31 0 -38 8 -22 26 4 5 11 22 15 37 6 24 1 35 -32 67 -27 28 -33 38 -20 37 9 -1 15 -3 13 -6z m-24 -50 c16 -16 29 -37 29 -45 0 -9 0 -19 0 -22 0 -7 -200 -8 -207 -1 -10 10 28 67 55 81 45 25 90 20 123 -13z" fill="#ffffff"/>
<path d="M1060 667 c0 -2 42 -109 94 -238 l95 -234 -20 -31 c-21 -34 -69 -57 -95 -47 -21 8 -34 -14 -34 -59 0 -32 3 -37 30 -43 63 -14 145 31 186 101 32 54 215 535 208 546 -3 4 -29 8 -59 8 l-54 0 -52 -160 c-30 -88 -56 -156 -60 -152 -5 6 -25 59 -101 260 l-19 52 -60 0 c-32 0 -59 -1 -59 -3z m100 -52 c7 -8 9 -15 5 -15 -4 0 -3 -6 2 -12 6 -7 22 -47 38 -88 40 -111 53 -138 76 -154 29 -20 41 -13 66 37 19 37 67 163 68 177 0 3 6 20 14 38 14 34 37 38 34 6 -2 -26 -41 -137 -51 -144 -4 -3 -8 -12 -9 -20 -2 -18 -50 -151 -84 -234 -32 -77 -97 -146 -139 -146 -39 0 -39 16 1 24 39 8 85 53 93 93 7 29 -23 126 -60 195 -8 14 -14 33 -14 42 0 9 -14 43 -30 76 -17 33 -30 61 -29 62 0 2 -4 16 -10 31 -16 43 3 63 29 32z" fill="#ffffff"/>
<path d="M2050 661 c0 -6 34 -57 75 -115 l76 -105 -81 -111 c-44 -61 -79 -114 -76 -118 2 -4 29 -5 59 -4 l55 4 49 69 c26 38 51 69 54 69 3 0 27 -31 53 -69 l48 -69 60 -4 c33 -1 62 0 64 4 3 4 -32 56 -76 115 -44 59 -80 111 -80 114 0 3 34 52 75 108 41 56 75 106 75 111 0 6 -24 10 -54 10 l-55 0 -48 -70 c-26 -38 -51 -70 -54 -70 -3 0 -27 32 -53 70 l-46 70 -60 0 c-33 0 -60 -4 -60 -9z m116 -53 c11 -13 29 -37 42 -55 12 -17 32 -35 43 -38 32 -10 73 12 94 50 10 20 24 40 31 46 19 15 25 -5 8 -27 -36 -46 -84 -127 -84 -141 0 -18 46 -100 67 -121 7 -8 20 -27 28 -43 14 -27 14 -28 -4 -21 -10 4 -37 30 -59 59 -66 82 -89 80 -156 -13 -38 -51 -56 -66 -56 -44 0 6 9 19 20 30 11 11 20 25 20 30 0 6 3 10 8 10 7 0 45 69 56 104 7 19 -15 61 -71 135 -30 39 -35 61 -14 61 4 0 16 -10 27 -22z" fill="#ffffff"/>
<path d="M2634 656 c-52 -23 -103 -84 -120 -144 -54 -186 91 -353 271 -313 109 24 174 111 175 232 0 105 -40 178 -122 220 -44 23 -156 25 -204 5z m61 -38 c-59 -22 -130 -121 -121 -170 15 -76 21 -96 35 -118 22 -35 49 -53 97 -66 35 -9 47 -8 83 9 110 52 129 216 35 310 -15 15 -32 27 -37 27 -8 0 -7 4 0 11 13 13 36 3 28 -12 -3 -5 0 -6 8 -4 22 9 66 -38 86 -90 16 -45 18 -74 8 -140 -6 -44 -38 -85 -90 -120 -35 -23 -140 -24 -182 -2 -34 17 -77 63 -89 92 -28 73 -9 190 37 233 23 22 90 51 117 51 8 -1 2 -5 -15 -11z m107 -65 c51 -54 61 -119 29 -190 -35 -77 -111 -95 -166 -40 -64 64 -66 167 -5 229 40 40 105 40 142 1z" fill="#ffffff"/>
</g>
</svg>